<?xml version="1.0" encoding="UTF-8"?>
<!DOCTYPE svg PUBLIC "-//W3C//DTD SVG 1.1//EN" "http://www.w3.org/Graphics/SVG/1.1/DTD/svg11.dtd">
<svg xmlns="http://www.w3.org/2000/svg" version="1.1" width="2134px" height="2134px" style="shape-rendering:geometricPrecision; text-rendering:geometricPrecision; image-rendering:optimizeQuality; fill-rule:evenodd; clip-rule:evenodd" xmlns:xlink="http://www.w3.org/1999/xlink">
<g><path style="opacity:1" fill="#fefefe" d="M -0.5,-0.5 C 710.833,-0.5 1422.17,-0.5 2133.5,-0.5C 2133.5,710.833 2133.5,1422.17 2133.5,2133.5C 1422.17,2133.5 710.833,2133.5 -0.5,2133.5C -0.5,1422.17 -0.5,710.833 -0.5,-0.5 Z"/></g>
<g><path style="opacity:1" fill="#0086bc" d="M 1097.5,252.5 C 1097.5,354.833 1097.5,457.167 1097.5,559.5C 1072.9,565.15 1048.57,564.483 1024.5,557.5C 1025.16,456.494 1024.5,355.828 1022.5,255.5C 1032.08,252.149 1042.08,250.316 1052.5,250C 1067.63,248.872 1082.63,249.705 1097.5,252.5 Z"/></g>
<g><path style="opacity:1" fill="#008cbd" d="M 1097.5,252.5 C 1125.43,258.627 1149.76,271.294 1170.5,290.5C 1170.5,367.833 1170.5,445.167 1170.5,522.5C 1149.68,541.411 1125.35,553.744 1097.5,559.5C 1097.5,457.167 1097.5,354.833 1097.5,252.5 Z"/></g>
<g><path style="opacity:1" fill="#0180ba" d="M 1022.5,255.5 C 1024.5,355.828 1025.16,456.494 1024.5,557.5C 1004.05,552.358 985.55,543.358 969,530.5C 964.044,534.453 959.378,538.786 955,543.5C 949.594,549.397 944.428,555.397 939.5,561.5C 939.817,557.298 939.483,553.298 938.5,549.5C 946.854,541.814 955.521,534.481 964.5,527.5C 955.07,518.41 946.403,508.743 938.5,498.5C 939.833,437.167 939.833,375.833 938.5,314.5C 959.477,284.997 987.477,265.33 1022.5,255.5 Z"/></g>
<g><path style="opacity:1" fill="#0491bf" d="M 1170.5,290.5 C 1204.88,321.626 1222.22,360.626 1222.5,407.5C 1221.13,453.23 1203.8,491.563 1170.5,522.5C 1170.5,445.167 1170.5,367.833 1170.5,290.5 Z"/></g>
<g><path style="opacity:1" fill="#067cba" d="M 938.5,314.5 C 939.833,375.833 939.833,437.167 938.5,498.5C 908.968,456.313 901.135,410.313 915,360.5C 919.977,343.542 927.811,328.209 938.5,314.5 Z"/></g>
<g><path style="opacity:1" fill="#05a1c3" d="M 1401.5,441.5 C 1401.83,471.574 1401.49,501.574 1400.5,531.5C 1367.13,534.809 1348.13,519.809 1343.5,486.5C 1345.26,463.239 1357.26,448.072 1379.5,441C 1387.01,440.178 1394.35,440.345 1401.5,441.5 Z"/></g>
<g><path style="opacity:1" fill="#06a4c4" d="M 1401.5,441.5 C 1423.33,448.315 1434.99,463.148 1436.5,486C 1435.09,509.577 1423.09,524.744 1400.5,531.5C 1401.49,501.574 1401.83,471.574 1401.5,441.5 Z"/></g>
<g><path style="opacity:1" fill="#036ab5" d="M 731.5,450.5 C 731.5,480.833 731.5,511.167 731.5,541.5C 729.901,541.232 728.568,541.566 727.5,542.5C 702.303,541.464 686.469,528.797 680,504.5C 677.516,477.633 689.016,459.799 714.5,451C 720.157,450.501 725.824,450.334 731.5,450.5 Z"/></g>
<g><path style="opacity:1" fill="#046db6" d="M 731.5,450.5 C 751.657,454.151 764.823,465.817 771,485.5C 774.355,509.961 765.188,527.794 743.5,539C 738.292,540.802 732.959,541.969 727.5,542.5C 728.568,541.566 729.901,541.232 731.5,541.5C 731.5,511.167 731.5,480.833 731.5,450.5 Z"/></g>
<g><path style="opacity:1" fill="#0a7aba" d="M 938.5,549.5 C 939.483,553.298 939.817,557.298 939.5,561.5C 910.127,597.55 885.794,636.884 866.5,679.5C 866.829,664.324 866.496,649.324 865.5,634.5C 885.84,602.878 910.173,574.545 938.5,549.5 Z"/></g>
<g><path style="opacity:1" fill="#01b3c8" d="M 1625.5,579.5 C 1627.83,579.5 1630.17,579.5 1632.5,579.5C 1632.5,683.5 1632.5,787.5 1632.5,891.5C 1628.83,891.5 1625.17,891.5 1621.5,891.5C 1611.4,891.014 1601.73,889.014 1592.5,885.5C 1593.5,785.668 1593.83,685.668 1593.5,585.5C 1603.69,581.597 1614.35,579.597 1625.5,579.5 Z"/></g>
<g><path style="opacity:1" fill="#01b8c9" d="M 1625.5,579.5 C 1653.29,576.82 1679.96,581.486 1705.5,593.5C 1705.5,688.167 1705.5,782.833 1705.5,877.5C 1678.77,890.177 1650.77,894.844 1621.5,891.5C 1625.17,891.5 1628.83,891.5 1632.5,891.5C 1632.5,787.5 1632.5,683.5 1632.5,579.5C 1630.17,579.5 1627.83,579.5 1625.5,579.5 Z"/></g>
<g><path style="opacity:1" fill="#0054af" d="M 481.5,581.5 C 484.167,581.5 486.833,581.5 489.5,581.5C 489.5,685.5 489.5,789.5 489.5,893.5C 485.833,893.5 482.167,893.5 478.5,893.5C 456.127,891.819 435.46,885.152 416.5,873.5C 416.5,782.833 416.5,692.167 416.5,601.5C 436.306,589.234 457.973,582.568 481.5,581.5 Z"/></g>
<g><path style="opacity:1" fill="#015ab1" d="M 481.5,581.5 C 509.739,579.079 536.739,584.079 562.5,596.5C 562.5,690.5 562.5,784.5 562.5,878.5C 558.775,879.681 555.441,881.514 552.5,884C 555.931,894.794 559.265,905.628 562.5,916.5C 562.828,927.014 562.494,937.347 561.5,947.5C 555.275,926.922 551.275,905.922 549.5,884.5C 526.363,892.639 502.696,895.639 478.5,893.5C 482.167,893.5 485.833,893.5 489.5,893.5C 489.5,789.5 489.5,685.5 489.5,581.5C 486.833,581.5 484.167,581.5 481.5,581.5 Z"/></g>
<g><path style="opacity:1" fill="#01b0c7" d="M 1593.5,585.5 C 1593.83,685.668 1593.5,785.668 1592.5,885.5C 1575.46,880.982 1560.13,873.316 1546.5,862.5C 1547.83,777.833 1547.83,693.167 1546.5,608.5C 1560.37,597.398 1576.04,589.731 1593.5,585.5 Z"/></g>
<g><path style="opacity:1" fill="#02beca" d="M 1705.5,593.5 C 1738.19,609.522 1762.52,633.855 1778.5,666.5C 1778.5,712.5 1778.5,758.5 1778.5,804.5C 1762.52,837.145 1738.19,861.478 1705.5,877.5C 1705.5,782.833 1705.5,688.167 1705.5,593.5 Z"/></g>
<g><path style="opacity:1" fill="#0160b2" d="M 562.5,596.5 C 595.578,612.578 619.912,637.245 635.5,670.5C 635.5,714.833 635.5,759.167 635.5,803.5C 620.303,837.364 595.97,862.364 562.5,878.5C 562.5,784.5 562.5,690.5 562.5,596.5 Z"/></g>
<g><path style="opacity:1" fill="#0050af" d="M 416.5,601.5 C 416.5,692.167 416.5,782.833 416.5,873.5C 409.338,870.331 403.005,865.998 397.5,860.5C 397.5,778.5 397.5,696.5 397.5,614.5C 403.005,609.002 409.338,604.669 416.5,601.5 Z"/></g>
<g><path style="opacity:1" fill="#04acc6" d="M 1546.5,608.5 C 1547.83,693.167 1547.83,777.833 1546.5,862.5C 1511.44,837.435 1490.28,803.435 1483,760.5C 1481.29,744.837 1481.12,729.17 1482.5,713.5C 1478.57,713.074 1474.91,712.074 1471.5,710.5C 1472.5,710.5 1473.5,710.5 1474.5,710.5C 1474.5,708.833 1474.5,707.167 1474.5,705.5C 1477.14,706.82 1479.81,708.153 1482.5,709.5C 1489.61,672.776 1506.94,641.943 1534.5,617C 1538.38,613.902 1542.38,611.068 1546.5,608.5 Z"/></g>
<g><path style="opacity:1" fill="#014eae" d="M 397.5,614.5 C 397.5,696.5 397.5,778.5 397.5,860.5C 370.575,840.028 352.408,813.361 343,780.5C 327.552,717.861 343.052,664.361 389.5,620C 392.065,617.92 394.732,616.087 397.5,614.5 Z"/></g>
<g><path style="opacity:1" fill="#0273b7" d="M 865.5,634.5 C 866.496,649.324 866.829,664.324 866.5,679.5C 846.473,725.273 833.139,772.94 826.5,822.5C 840.977,824.766 854.31,829.766 866.5,837.5C 866.5,897.5 866.5,957.5 866.5,1017.5C 843.202,1031.77 818.202,1036.44 791.5,1031.5C 793.497,962.508 794.163,893.175 793.5,823.5C 792.167,823.5 790.833,823.5 789.5,823.5C 791.607,822.532 793.941,822.198 796.5,822.5C 804.932,754.337 827.932,691.671 865.5,634.5 Z"/></g>
<g><path style="opacity:1" fill="#18c3cc" d="M 1778.5,666.5 C 1798.51,707.093 1800.68,748.76 1785,791.5C 1783.33,796.173 1781.16,800.507 1778.5,804.5C 1778.5,758.5 1778.5,712.5 1778.5,666.5 Z"/></g>
<g><path style="opacity:1" fill="#0186bc" d="M 1097.5,676.5 C 1097.5,742.5 1097.5,808.5 1097.5,874.5C 1078.37,881.406 1058.71,883.239 1038.5,880C 1033.52,879.097 1028.86,877.597 1024.5,875.5C 1024.5,808.833 1024.5,742.167 1024.5,675.5C 1035.26,671.006 1046.6,669.006 1058.5,669.5C 1072.04,669.146 1085.04,671.48 1097.5,676.5 Z"/></g>
<g><path style="opacity:1" fill="#0b66b5" d="M 635.5,670.5 C 651.048,703.007 654.881,737.007 647,772.5C 644.525,783.446 640.692,793.779 635.5,803.5C 635.5,759.167 635.5,714.833 635.5,670.5 Z"/></g>
<g><path style="opacity:1" fill="#0899c1" d="M 1297.5,676.5 C 1307.83,676.5 1318.17,676.5 1328.5,676.5C 1328.5,683.5 1328.5,690.5 1328.5,697.5C 1327.21,697.263 1326.21,697.596 1325.5,698.5C 1297.43,699.891 1269.76,703.891 1242.5,710.5C 1243.47,701.25 1243.81,691.917 1243.5,682.5C 1242.5,682.5 1241.5,682.5 1240.5,682.5C 1259.24,679.259 1278.24,677.259 1297.5,676.5 Z"/></g>
<g><path style="opacity:1" fill="#14a1c4" d="M 1297.5,676.5 C 1332.33,675.096 1367,677.762 1401.5,684.5C 1401.5,689.167 1401.5,693.833 1401.5,698.5C 1398.83,698.5 1396.17,698.5 1393.5,698.5C 1370.82,697.284 1348.15,697.284 1325.5,698.5C 1326.21,697.596 1327.21,697.263 1328.5,697.5C 1328.5,690.5 1328.5,683.5 1328.5,676.5C 1318.17,676.5 1307.83,676.5 1297.5,676.5 Z"/></g>
<g><path style="opacity:1" fill="#0281bb" d="M 1024.5,675.5 C 1024.5,742.167 1024.5,808.833 1024.5,875.5C 983.871,860.024 960.371,830.69 954,787.5C 950.765,737.109 971.598,700.609 1016.5,678C 1019.1,676.864 1021.76,676.031 1024.5,675.5 Z"/></g>
<g><path style="opacity:1" fill="#038cbd" d="M 1097.5,676.5 C 1115.42,683.252 1130.42,694.085 1142.5,709C 1151.59,706.692 1160.59,703.859 1169.5,700.5C 1170.49,710.653 1170.83,720.986 1170.5,731.5C 1166.18,732.992 1162.18,734.992 1158.5,737.5C 1172.64,778.697 1165.47,815.697 1137,848.5C 1125.83,860.17 1112.66,868.837 1097.5,874.5C 1097.5,808.5 1097.5,742.5 1097.5,676.5 Z"/></g>
<g><path style="opacity:1" fill="#0a93c0" d="M 1240.5,682.5 C 1241.5,682.5 1242.5,682.5 1243.5,682.5C 1243.81,691.917 1243.47,701.25 1242.5,710.5C 1217.97,715.632 1193.97,722.632 1170.5,731.5C 1170.83,720.986 1170.49,710.653 1169.5,700.5C 1192.48,692.172 1216.14,686.172 1240.5,682.5 Z"/></g>
<g><path style="opacity:1" fill="#1ea9c6" d="M 1401.5,684.5 C 1426.51,689.168 1450.84,696.168 1474.5,705.5C 1474.5,707.167 1474.5,708.833 1474.5,710.5C 1473.5,710.5 1472.5,710.5 1471.5,710.5C 1445.67,704.527 1419.67,700.527 1393.5,698.5C 1396.17,698.5 1398.83,698.5 1401.5,698.5C 1401.5,693.833 1401.5,689.167 1401.5,684.5 Z"/></g>
<g><path style="opacity:1" fill="#0198c0" d="M 1306.5,809.5 C 1307.16,880.175 1306.5,950.508 1304.5,1020.5C 1280.69,1018.42 1260.36,1009.09 1243.5,992.5C 1243.5,940.833 1243.5,889.167 1243.5,837.5C 1260.88,820.316 1281.88,810.983 1306.5,809.5 Z"/></g>
<g><path style="opacity:1" fill="#039bc2" d="M 1328.5,809.5 C 1328.5,879.833 1328.5,950.167 1328.5,1020.5C 1320.35,1021.67 1312.35,1021.67 1304.5,1020.5C 1306.5,950.508 1307.16,880.175 1306.5,809.5C 1313.7,808.22 1321.04,808.22 1328.5,809.5 Z"/></g>
<g><path style="opacity:1" fill="#019fc2" d="M 1328.5,809.5 C 1359.3,813.72 1383.63,828.387 1401.5,853.5C 1401.83,896.67 1401.5,939.67 1400.5,982.5C 1399.58,981.697 1398.58,981.53 1397.5,982C 1379.53,1003.66 1356.53,1016.49 1328.5,1020.5C 1328.5,950.167 1328.5,879.833 1328.5,809.5 Z"/></g>
<g><path style="opacity:1" fill="#016eb6" d="M 789.5,823.5 C 790.833,823.5 792.167,823.5 793.5,823.5C 794.163,893.175 793.497,962.508 791.5,1031.5C 766.774,1027.31 746.441,1015.64 730.5,996.5C 731.833,950.167 731.833,903.833 730.5,857.5C 746.219,839.475 765.886,828.142 789.5,823.5 Z"/></g>
<g><path style="opacity:1" fill="#0278b9" d="M 866.5,837.5 C 899.246,858.305 915.912,888.305 916.5,927.5C 915.496,966.434 898.83,996.434 866.5,1017.5C 866.5,957.5 866.5,897.5 866.5,837.5 Z"/></g>
<g><path style="opacity:1" fill="#0494c0" d="M 1243.5,837.5 C 1243.5,889.167 1243.5,940.833 1243.5,992.5C 1220.31,971.258 1208.97,944.758 1209.5,913C 1209.95,882.788 1221.28,857.622 1243.5,837.5 Z"/></g>
<g><path style="opacity:1" fill="#08a5c4" d="M 1401.5,853.5 C 1417.49,875.129 1423.99,899.462 1421,926.5C 1419.13,936.29 1417.13,945.957 1415,955.5C 1436.29,972.624 1456.12,991.291 1474.5,1011.5C 1474.83,1025.34 1474.5,1039.01 1473.5,1052.5C 1451.04,1027.04 1426.71,1003.7 1400.5,982.5C 1401.5,939.67 1401.83,896.67 1401.5,853.5 Z"/></g>
<g><path style="opacity:1" fill="#066bb5" d="M 730.5,857.5 C 731.833,903.833 731.833,950.167 730.5,996.5C 704.226,964.658 697.726,928.992 711,889.5C 715.741,877.671 722.241,867.004 730.5,857.5 Z"/></g>
<g><path style="opacity:1" fill="#0862b3" d="M 562.5,916.5 C 580.565,965.302 604.898,1010.64 635.5,1052.5C 635.829,1066.34 635.496,1080.01 634.5,1093.5C 601.217,1049.6 576.884,1000.93 561.5,947.5C 562.494,937.347 562.828,927.014 562.5,916.5 Z"/></g>
<g><path style="opacity:1" fill="#08beca" d="M 1723.5,1010.5 C 1751.29,1009.3 1769.12,1021.97 1777,1048.5C 1779.47,1075.39 1767.97,1093.23 1742.5,1102C 1720.5,1106.24 1703.33,1099.08 1691,1080.5C 1679.27,1055.79 1684.11,1034.96 1705.5,1018C 1711.27,1014.61 1717.27,1012.11 1723.5,1010.5 Z"/></g>
<g><path style="opacity:1" fill="#0dacc6" d="M 1474.5,1011.5 C 1504.75,1044.45 1529.08,1081.45 1547.5,1122.5C 1547.83,1135.68 1547.5,1148.68 1546.5,1161.5C 1526.48,1122.17 1502.15,1085.84 1473.5,1052.5C 1474.5,1039.01 1474.83,1025.34 1474.5,1011.5 Z"/></g>
<g><path style="opacity:1" fill="#034fae" d="M 416.5,1033.5 C 416.5,1062.5 416.5,1091.5 416.5,1120.5C 387.183,1127.26 367.349,1116.59 357,1088.5C 352.593,1058.82 364.759,1039.65 393.5,1031C 398.833,1030.33 404.167,1030.33 409.5,1031C 412.191,1031.16 414.524,1031.99 416.5,1033.5 Z"/></g>
<g><path style="opacity:1" fill="#0353af" d="M 416.5,1033.5 C 432.243,1038.74 442.409,1049.41 447,1065.5C 450.826,1091.87 440.659,1110.2 416.5,1120.5C 416.5,1091.5 416.5,1062.5 416.5,1033.5 Z"/></g>
<g><path style="opacity:1" fill="#0668b5" d="M 635.5,1052.5 C 660.689,1085.03 689.022,1114.69 720.5,1141.5C 720.832,1181 720.499,1220.34 719.5,1259.5C 709.307,1232.97 708.974,1206.3 718.5,1179.5C 687.461,1153.79 659.461,1125.13 634.5,1093.5C 635.496,1080.01 635.829,1066.34 635.5,1052.5 Z"/></g>
<g><path style="opacity:1" fill="#049bc2" d="M 1328.5,1100.5 C 1328.5,1185.17 1328.5,1269.83 1328.5,1354.5C 1313.75,1420.33 1285.41,1479.33 1243.5,1531.5C 1243.83,1520.99 1243.49,1510.65 1242.5,1500.5C 1275.77,1441.69 1297.1,1378.69 1306.5,1311.5C 1304.9,1311.77 1303.57,1311.43 1302.5,1310.5C 1303.83,1310.5 1305.17,1310.5 1306.5,1310.5C 1306.5,1240.83 1306.5,1171.17 1306.5,1101.5C 1313.65,1100.51 1320.98,1100.18 1328.5,1100.5 Z"/></g>
<g><path style="opacity:1" fill="#019fc2" d="M 1328.5,1100.5 C 1357.73,1102.29 1382.07,1113.95 1401.5,1135.5C 1401.5,1182.5 1401.5,1229.5 1401.5,1276.5C 1384.39,1296.23 1362.72,1307.89 1336.5,1311.5C 1335.09,1326.19 1332.43,1340.53 1328.5,1354.5C 1328.5,1269.83 1328.5,1185.17 1328.5,1100.5 Z"/></g>
<g><path style="opacity:1" fill="#0198c0" d="M 1306.5,1101.5 C 1306.5,1171.17 1306.5,1240.83 1306.5,1310.5C 1305.17,1310.5 1303.83,1310.5 1302.5,1310.5C 1282.62,1307.06 1265.29,1298.56 1250.5,1285C 1247.55,1282.56 1245.22,1279.73 1243.5,1276.5C 1243.83,1229.66 1243.5,1183 1242.5,1136.5C 1259.45,1117.02 1280.78,1105.36 1306.5,1101.5 Z"/></g>
<g><path style="opacity:1" fill="#0073b7" d="M 866.5,1124.5 C 866.5,1187.17 866.5,1249.83 866.5,1312.5C 842.607,1324.86 817.607,1327.86 791.5,1321.5C 793.497,1253.17 794.163,1184.51 793.5,1115.5C 818.809,1109.73 843.142,1112.73 866.5,1124.5 Z"/></g>
<g><path style="opacity:1" fill="#016eb6" d="M 793.5,1115.5 C 794.163,1184.51 793.497,1253.17 791.5,1321.5C 757.93,1311.93 733.93,1291.26 719.5,1259.5C 720.499,1220.34 720.832,1181 720.5,1141.5C 725.148,1145.14 729.815,1148.81 734.5,1152.5C 749.867,1133.32 769.533,1120.98 793.5,1115.5 Z"/></g>
<g><path style="opacity:1" fill="#03b0c7" d="M 1547.5,1122.5 C 1566.63,1162.01 1578.8,1203.67 1584,1247.5C 1584.41,1247.96 1584.91,1248.29 1585.5,1248.5C 1587.73,1247.42 1590.06,1246.76 1592.5,1246.5C 1593.17,1296.17 1593.5,1346 1593.5,1396C 1593.5,1446.17 1592.83,1496 1591.5,1545.5C 1574.91,1540.71 1559.91,1533.04 1546.5,1522.5C 1547.5,1438.33 1547.83,1354 1547.5,1269.5C 1556.91,1261.46 1567.57,1255.46 1579.5,1251.5C 1572.45,1220.02 1561.45,1190.02 1546.5,1161.5C 1547.5,1148.68 1547.83,1135.68 1547.5,1122.5 Z"/></g>
<g><path style="opacity:1" fill="#0279b9" d="M 866.5,1124.5 C 903.198,1144.71 922.198,1175.87 923.5,1218C 922.89,1257.9 905.89,1288.56 872.5,1310C 870.593,1311.12 868.593,1311.96 866.5,1312.5C 866.5,1249.83 866.5,1187.17 866.5,1124.5 Z"/></g>
<g><path style="opacity:1" fill="#0695c0" d="M 1242.5,1136.5 C 1243.5,1183 1243.83,1229.66 1243.5,1276.5C 1230.02,1262.55 1221.52,1245.88 1218,1226.5C 1212.08,1192.46 1220.25,1162.46 1242.5,1136.5 Z"/></g>
<g><path style="opacity:1" fill="#07a4c4" d="M 1401.5,1135.5 C 1429.12,1168.55 1435.62,1205.55 1421,1246.5C 1416.6,1258.02 1410.1,1268.02 1401.5,1276.5C 1401.5,1229.5 1401.5,1182.5 1401.5,1135.5 Z"/></g>
<g><path style="opacity:1" fill="#01b4c8" d="M 1632.5,1239.5 C 1632.5,1343.83 1632.5,1448.17 1632.5,1552.5C 1630.83,1552.5 1629.17,1552.5 1627.5,1552.5C 1614.99,1552.2 1602.99,1549.86 1591.5,1545.5C 1592.83,1496 1593.5,1446.17 1593.5,1396C 1593.5,1346 1593.17,1296.17 1592.5,1246.5C 1605.31,1241.87 1618.64,1239.54 1632.5,1239.5 Z"/></g>
<g><path style="opacity:1" fill="#01b8c9" d="M 1632.5,1239.5 C 1658.05,1238.05 1682.38,1242.72 1705.5,1253.5C 1705.5,1348.5 1705.5,1443.5 1705.5,1538.5C 1680.61,1550.09 1654.61,1554.76 1627.5,1552.5C 1629.17,1552.5 1630.83,1552.5 1632.5,1552.5C 1632.5,1448.17 1632.5,1343.83 1632.5,1239.5 Z"/></g>
<g><path style="opacity:1" fill="#0054af" d="M 489.5,1241.5 C 489.5,1345.83 489.5,1450.17 489.5,1554.5C 463.103,1554.16 438.769,1547.16 416.5,1533.5C 416.833,1443.33 416.499,1353.33 415.5,1263.5C 438.075,1249.51 462.741,1242.18 489.5,1241.5 Z"/></g>
<g><path style="opacity:1" fill="#005ab1" d="M 489.5,1241.5 C 515.037,1240.81 539.371,1245.81 562.5,1256.5C 562.5,1350.83 562.5,1445.17 562.5,1539.5C 539.535,1550.99 515.201,1555.99 489.5,1554.5C 489.5,1450.17 489.5,1345.83 489.5,1241.5 Z"/></g>
<g><path style="opacity:1" fill="#0186bc" d="M 1097.5,1254.5 C 1097.5,1323.5 1097.5,1392.5 1097.5,1461.5C 1071.53,1467.91 1046.86,1464.57 1023.5,1451.5C 1024.5,1389.34 1024.83,1327 1024.5,1264.5C 1044.67,1253.17 1066.34,1249.34 1089.5,1253C 1092.17,1253.57 1094.83,1254.07 1097.5,1254.5 Z"/></g>
<g><path style="opacity:1" fill="#02beca" d="M 1705.5,1253.5 C 1738.08,1268.74 1762.41,1292.41 1778.5,1324.5C 1778.5,1372.17 1778.5,1419.83 1778.5,1467.5C 1762.41,1499.59 1738.08,1523.26 1705.5,1538.5C 1705.5,1443.5 1705.5,1348.5 1705.5,1253.5 Z"/></g>
<g><path style="opacity:1" fill="#028cbe" d="M 1097.5,1254.5 C 1142.49,1267.33 1169.66,1296.66 1179,1342.5C 1183.16,1386.33 1167.66,1421.16 1132.5,1447C 1121.74,1454.05 1110.07,1458.88 1097.5,1461.5C 1097.5,1392.5 1097.5,1323.5 1097.5,1254.5 Z"/></g>
<g><path style="opacity:1" fill="#0060b2" d="M 562.5,1256.5 C 595.188,1272.52 619.522,1296.85 635.5,1329.5C 635.5,1375.17 635.5,1420.83 635.5,1466.5C 620.163,1499.84 595.83,1524.17 562.5,1539.5C 562.5,1445.17 562.5,1350.83 562.5,1256.5 Z"/></g>
<g><path style="opacity:1" fill="#0050af" d="M 415.5,1263.5 C 416.499,1353.33 416.833,1443.33 416.5,1533.5C 409.338,1530.33 403.005,1526 397.5,1520.5C 397.833,1439 397.499,1357.66 396.5,1276.5C 402.005,1271 408.338,1266.67 415.5,1263.5 Z"/></g>
<g><path style="opacity:1" fill="#0381bb" d="M 1024.5,1264.5 C 1024.83,1327 1024.5,1389.34 1023.5,1451.5C 1010.12,1444.8 998.785,1435.46 989.5,1423.5C 973.097,1429.97 956.43,1435.63 939.5,1440.5C 939.827,1430.32 939.494,1420.32 938.5,1410.5C 949.773,1406.46 961.107,1402.29 972.5,1398C 973.428,1397.61 974.095,1396.95 974.5,1396C 958.63,1347.63 969.963,1306.96 1008.5,1274C 1013.39,1270.05 1018.73,1266.89 1024.5,1264.5 Z"/></g>
<g><path style="opacity:1" fill="#04acc6" d="M 1547.5,1269.5 C 1547.83,1354 1547.5,1438.33 1546.5,1522.5C 1503.66,1490.49 1482.33,1447.49 1482.5,1393.5C 1483.89,1346.89 1501.89,1308.06 1536.5,1277C 1539.79,1273.86 1543.46,1271.36 1547.5,1269.5 Z"/></g>
<g><path style="opacity:1" fill="#014eae" d="M 396.5,1276.5 C 397.499,1357.66 397.833,1439 397.5,1520.5C 367.476,1496.57 348.643,1465.57 341,1427.5C 331.166,1366.48 349.666,1316.15 396.5,1276.5 Z"/></g>
<g><path style="opacity:1" fill="#14c3cc" d="M 1778.5,1324.5 C 1799.51,1365.93 1802.01,1408.6 1786,1452.5C 1784,1457.84 1781.5,1462.84 1778.5,1467.5C 1778.5,1419.83 1778.5,1372.17 1778.5,1324.5 Z"/></g>
<g><path style="opacity:1" fill="#0d68b5" d="M 635.5,1329.5 C 647.026,1351.11 652.359,1374.28 651.5,1399C 651.399,1406.19 651.065,1413.35 650.5,1420.5C 673.486,1426.62 696.819,1430.96 720.5,1433.5C 720.818,1438.03 720.485,1442.37 719.5,1446.5C 695.446,1441.37 672.113,1434.04 649.5,1424.5C 647.005,1439.32 642.338,1453.32 635.5,1466.5C 635.5,1420.83 635.5,1375.17 635.5,1329.5 Z"/></g>
<g><path style="opacity:1" fill="#097bb9" d="M 938.5,1410.5 C 939.494,1420.32 939.827,1430.32 939.5,1440.5C 915.709,1447.41 891.375,1452.08 866.5,1454.5C 866.5,1445.83 866.5,1437.17 866.5,1428.5C 877.967,1425.7 889.634,1423.2 901.5,1421C 913.797,1417.34 926.13,1413.84 938.5,1410.5 Z"/></g>
<g><path style="opacity:1" fill="#0774b8" d="M 866.5,1428.5 C 866.5,1437.17 866.5,1445.83 866.5,1454.5C 841.428,1457.44 816.428,1458.1 791.5,1456.5C 793.459,1450.25 794.126,1443.58 793.5,1436.5C 817.959,1434.99 842.293,1432.32 866.5,1428.5 Z"/></g>
<g><path style="opacity:1" fill="#086fb6" d="M 720.5,1433.5 C 744.763,1435.92 769.096,1436.92 793.5,1436.5C 794.126,1443.58 793.459,1450.25 791.5,1456.5C 766.995,1455.67 742.995,1452.33 719.5,1446.5C 720.485,1442.37 720.818,1438.03 720.5,1433.5 Z"/></g>
<g><path style="opacity:1" fill="#0e95c0" d="M 1242.5,1500.5 C 1243.49,1510.65 1243.83,1520.99 1243.5,1531.5C 1229.18,1550.33 1213.18,1567.83 1195.5,1584C 1187.58,1591.1 1179.24,1597.6 1170.5,1603.5C 1170.5,1601.83 1170.5,1600.17 1170.5,1598.5C 1198.41,1568.68 1222.41,1536.01 1242.5,1500.5 Z"/></g>
<g><path style="opacity:1" fill="#0186bc" d="M 1097.5,1573.5 C 1097.5,1676.17 1097.5,1778.83 1097.5,1881.5C 1072.06,1886.37 1047.06,1885.04 1022.5,1877.5C 1023.83,1827.84 1024.5,1777.84 1024.5,1727.5C 1024.5,1677.16 1023.83,1627.16 1022.5,1577.5C 1047,1569.79 1072,1568.46 1097.5,1573.5 Z"/></g>
<g><path style="opacity:1" fill="#008cbd" d="M 1097.5,1573.5 C 1122.11,1578.22 1144.28,1588.22 1164,1603.5C 1165.93,1601.46 1168.09,1599.79 1170.5,1598.5C 1170.5,1600.17 1170.5,1601.83 1170.5,1603.5C 1169.94,1604.79 1168.94,1605.62 1167.5,1606C 1168.71,1607.04 1169.71,1608.21 1170.5,1609.5C 1170.5,1688.17 1170.5,1766.83 1170.5,1845.5C 1149.6,1864.11 1125.27,1876.11 1097.5,1881.5C 1097.5,1778.83 1097.5,1676.17 1097.5,1573.5 Z"/></g>
<g><path style="opacity:1" fill="#0080ba" d="M 1022.5,1577.5 C 1023.83,1627.16 1024.5,1677.16 1024.5,1727.5C 1024.5,1777.84 1023.83,1827.84 1022.5,1877.5C 987.366,1866.94 959.366,1846.61 938.5,1816.5C 939.833,1757.17 939.833,1697.83 938.5,1638.5C 959.385,1608.39 987.385,1588.06 1022.5,1577.5 Z"/></g>
<g><path style="opacity:1" fill="#05a4c4" d="M 1397.5,1592.5 C 1425.54,1588.78 1444.04,1600.45 1453,1627.5C 1456.2,1656.3 1444.03,1674.8 1416.5,1683C 1409.99,1683.82 1403.65,1683.65 1397.5,1682.5C 1398.83,1682.5 1400.17,1682.5 1401.5,1682.5C 1401.5,1652.5 1401.5,1622.5 1401.5,1592.5C 1400.17,1592.5 1398.83,1592.5 1397.5,1592.5 Z"/></g>
<g><path style="opacity:1" fill="#06a1c3" d="M 1397.5,1592.5 C 1398.83,1592.5 1400.17,1592.5 1401.5,1592.5C 1401.5,1622.5 1401.5,1652.5 1401.5,1682.5C 1400.17,1682.5 1398.83,1682.5 1397.5,1682.5C 1374.17,1676.33 1362.17,1661.17 1361.5,1637C 1362.63,1613.37 1374.63,1598.53 1397.5,1592.5 Z"/></g>
<g><path style="opacity:1" fill="#036eb6" d="M 729.5,1691.5 C 731.492,1662.52 732.159,1633.19 731.5,1603.5C 730.5,1603.5 729.5,1603.5 728.5,1603.5C 757.85,1597.1 777.683,1608.1 788,1636.5C 791.641,1666.75 778.808,1685.59 749.5,1693C 744.167,1693.67 738.833,1693.67 733.5,1693C 731.942,1692.79 730.609,1692.29 729.5,1691.5 Z"/></g>
<g><path style="opacity:1" fill="#056bb5" d="M 728.5,1603.5 C 729.5,1603.5 730.5,1603.5 731.5,1603.5C 732.159,1633.19 731.492,1662.52 729.5,1691.5C 707.996,1684.14 696.996,1668.97 696.5,1646C 697.41,1630.51 704.076,1618.18 716.5,1609C 720.194,1606.49 724.194,1604.66 728.5,1603.5 Z"/></g>
<g><path style="opacity:1" fill="#0391bf" d="M 1170.5,1609.5 C 1209.9,1644.49 1227.73,1688.49 1224,1741.5C 1219.58,1783.34 1201.75,1818.01 1170.5,1845.5C 1170.5,1766.83 1170.5,1688.17 1170.5,1609.5 Z"/></g>
<g><path style="opacity:1" fill="#067cba" d="M 938.5,1638.5 C 939.833,1697.83 939.833,1757.17 938.5,1816.5C 906.732,1767.32 902.232,1715.66 925,1661.5C 929.022,1653.44 933.522,1645.77 938.5,1638.5 Z"/></g>
</svg>
